<svg width="125" height="100" viewBox="0 0 125 100" fill="none" xmlns="http://www.w3.org/2000/svg">
<path d="M28.5763 3.26575C29.4359 3.46484 30.2712 3.7514 31.0821 4.11558C31.8881 4.48468 32.6507 4.92649 33.3692 5.44143C34.0929 5.96087 34.7532 6.5436 35.3603 7.18964C35.9672 7.83545 36.5014 8.53473 36.9676 9.28747C37.4387 10.0449 37.8273 10.8366 38.138 11.662C38.4487 12.4924 38.6771 13.3471 38.8227 14.2211C38.9634 15.0953 39.0218 15.9743 38.9927 16.863C38.9634 17.7466 38.8469 18.6208 38.6431 19.4852C38.444 20.3496 38.1574 21.1849 37.7933 21.9911C37.4242 22.797 36.9821 23.5594 36.4674 24.2831C35.9527 25.0018 35.37 25.6622 34.7192 26.2693C34.0734 26.8762 33.3741 27.4104 32.6214 27.8815C31.8689 28.3477 31.0772 28.736 30.2469 29.0469C29.4165 29.3577 28.5617 29.5858 27.6878 29.7317C26.8135 29.8724 25.9346 29.9308 25.0508 29.9015C24.1621 29.8724 23.2881 29.7558 22.4237 29.5568C21.5641 29.3527 20.729 29.0711 19.9179 28.702C19.1119 28.3378 18.3495 27.896 17.6308 27.3764C16.9071 26.8616 16.2468 26.2789 15.6397 25.6331C15.0328 24.9824 14.4986 24.2831 14.0324 23.5303C13.5613 22.7776 13.1727 21.9861 12.862 21.1558C12.5513 20.3254 12.3231 19.4756 12.1773 18.6014C12.0366 17.7274 11.9782 16.8436 12.0073 15.9597C12.0366 15.071 12.1531 14.197 12.3569 13.3373C12.5562 12.4729 12.8426 11.6377 13.2067 10.8317C13.5758 10.0208 14.0179 9.25818 14.5326 8.53944C15.0473 7.82091 15.63 7.15563 16.2808 6.54852C16.9266 5.94633 17.6259 5.40743 18.3786 4.94125C19.1313 4.47506 19.9228 4.08158 20.7531 3.77086C21.5835 3.46014 22.4333 3.23175 23.3122 3.09104C24.1864 2.9452 25.0654 2.88703 25.9492 2.91611C26.8379 2.9452 27.7119 3.06174 28.5763 3.26575Z" fill="#9B30F4"/>
<mask id="mask0_15_2" style="mask-type:luminance" maskUnits="userSpaceOnUse" x="11" y="2" width="99" height="98">
<path d="M11 2H109.229V99.9088H11V2Z" fill="white"/>
</mask>
<g mask="url(#mask0_15_2)">
<path fill-rule="evenodd" clip-rule="evenodd" d="M25.8905 99.4168C24.5326 99.4365 23.1995 99.2593 21.8911 98.8807C20.5824 98.5018 19.3626 97.9409 18.2211 97.1981C17.0799 96.4553 16.0765 95.5649 15.2009 94.5221C14.33 93.4792 13.6266 92.328 13.1002 91.0735C12.5691 89.824 12.2344 88.5206 12.0918 87.1677C11.954 85.8149 12.0132 84.467 12.2738 83.1338C12.5346 81.8007 12.9872 80.5315 13.6266 79.3313C14.2661 78.131 15.0679 77.0487 16.0321 76.0895L85.478 6.63886C86.1125 5.99916 86.8011 5.42856 87.5489 4.92684C88.2967 4.42015 89.0837 3.99707 89.9152 3.64786C90.7464 3.30342 91.6025 3.03783 92.4829 2.86084C93.3685 2.68364 94.2588 2.59504 95.1591 2.59027C96.0592 2.59027 96.9546 2.67389 97.8352 2.85088C98.7207 3.0231 99.5766 3.28371 100.408 3.62815C101.239 3.97259 102.031 4.39068 102.779 4.8924C103.532 5.39411 104.221 5.95995 104.86 6.59445C105.495 7.23395 106.065 7.92759 106.562 8.6754C107.064 9.42299 107.487 10.2152 107.831 11.0464C108.176 11.8778 108.431 12.7387 108.608 13.6193C108.781 14.5047 108.869 15.395 108.864 16.2954C108.864 17.1957 108.776 18.086 108.594 18.9714C108.417 19.852 108.156 20.7079 107.807 21.5393C107.462 22.3707 107.034 23.1577 106.532 23.9056C106.031 24.6531 105.46 25.342 104.821 25.9765L58.712 72.0803H95.1492C96.0445 72.0803 96.9351 72.1687 97.8154 72.3459C98.696 72.5181 99.5519 72.7787 100.378 73.1232C101.21 73.4674 101.997 73.8855 102.745 74.3874C103.492 74.8842 104.181 75.45 104.816 76.0895C105.45 76.724 106.021 77.4127 106.518 78.1605C107.015 78.9083 107.438 79.6953 107.782 80.5217C108.126 81.3532 108.382 82.2091 108.559 83.0897C108.736 83.9703 108.825 84.8606 108.825 85.7559C108.825 86.656 108.736 87.5416 108.559 88.4222C108.382 89.3026 108.126 90.1587 107.782 90.9899C107.438 91.8214 107.015 92.6084 106.518 93.3512C106.021 94.099 105.45 94.7926 104.816 95.4272C104.181 96.0619 103.492 96.6275 102.745 97.1245C101.997 97.6262 101.21 98.0443 100.378 98.3887C99.5519 98.7329 98.696 98.9937 97.8154 99.1707C96.9351 99.3429 96.0445 99.4315 95.1492 99.4315L25.8905 99.4168Z" fill="#6449F4"/>
</g>
</svg>
