<svg width="250" height="100" viewBox="0 0 250 100" fill="none" xmlns="http://www.w3.org/2000/svg">
<path d="M54.2251 26.4579C54.6271 26.551 55.0177 26.685 55.3969 26.8553C55.7738 27.0279 56.1304 27.2345 56.4664 27.4753C56.8048 27.7182 57.1136 27.9907 57.3975 28.2928C57.6813 28.5948 57.9311 28.9218 58.1491 29.2738C58.3694 29.628 58.5511 29.9982 58.6964 30.3842C58.8417 30.7725 58.9485 31.1722 59.0166 31.5809C59.0824 31.9897 59.1097 32.4007 59.0961 32.8163C59.0824 33.2295 59.0279 33.6383 58.9326 34.0425C58.8395 34.4467 58.7055 34.8373 58.5352 35.2143C58.3626 35.5912 58.1559 35.9477 57.9152 36.2861C57.6745 36.6222 57.402 36.931 57.0977 37.2149C56.7957 37.4987 56.4687 37.7485 56.1167 37.9688C55.7648 38.1868 55.3946 38.3684 55.0063 38.5138C54.618 38.6591 54.2183 38.7658 53.8096 38.834C53.4008 38.8998 52.9898 38.9271 52.5765 38.9134C52.1609 38.8998 51.7522 38.8453 51.348 38.7522C50.946 38.6568 50.5555 38.5251 50.1762 38.3525C49.7993 38.1822 49.4428 37.9756 49.1067 37.7326C48.7683 37.4919 48.4595 37.2194 48.1756 36.9174C47.8918 36.6131 47.642 36.2861 47.424 35.9341C47.2037 35.5821 47.022 35.212 46.8767 34.8237C46.7314 34.4354 46.6247 34.038 46.5565 33.6292C46.4907 33.2205 46.4634 32.8072 46.477 32.3939C46.4907 31.9783 46.5452 31.5696 46.6405 31.1676C46.7337 30.7634 46.8676 30.3728 47.0379 29.9959C47.2105 29.6167 47.4172 29.2601 47.6579 28.924C47.8986 28.588 48.1711 28.2769 48.4754 27.993C48.7774 27.7114 49.1044 27.4594 49.4564 27.2414C49.8084 27.0234 50.1785 26.8394 50.5668 26.6941C50.9551 26.5488 51.3525 26.442 51.7635 26.3762C52.1723 26.308 52.5833 26.2808 52.9966 26.2944C53.4122 26.308 53.8209 26.3625 54.2251 26.4579Z" fill="white"/>
<mask id="mask0_418_7753" style="mask-type:luminance" maskUnits="userSpaceOnUse" x="46" y="26" width="46" height="46">
<path d="M46 26H91.344V71.1964H46V26Z" fill="white"/>
</mask>
<g mask="url(#mask0_418_7753)">
<path fill-rule="evenodd" clip-rule="evenodd" d="M52.8737 70.9693C52.2469 70.9784 51.6315 70.8966 51.0275 70.7218C50.4234 70.5469 49.8603 70.288 49.3334 69.9451C48.8066 69.6022 48.3434 69.1912 47.9392 68.7098C47.5372 68.2284 47.2125 67.697 46.9695 67.1179C46.7243 66.5411 46.5698 65.9394 46.504 65.3149C46.4404 64.6904 46.4677 64.0682 46.588 63.4528C46.7084 62.8374 46.9173 62.2515 47.2125 61.6975C47.5077 61.1434 47.8778 60.6438 48.3229 60.201L80.3803 28.1414C80.6732 27.8461 80.9911 27.5827 81.3363 27.3511C81.6815 27.1172 82.0448 26.9219 82.4286 26.7607C82.8123 26.6017 83.2075 26.4791 83.6139 26.3974C84.0227 26.3156 84.4337 26.2747 84.8493 26.2725C85.2648 26.2725 85.6781 26.3111 86.0846 26.3928C86.4934 26.4723 86.8885 26.5926 87.2723 26.7516C87.656 26.9106 88.0216 27.1036 88.3668 27.3352C88.7142 27.5668 89.0322 27.828 89.3274 28.1209C89.6203 28.4161 89.8837 28.7363 90.1131 29.0815C90.3447 29.4266 90.54 29.7923 90.6989 30.176C90.8579 30.5598 90.976 30.9572 91.0577 31.3637C91.1372 31.7724 91.1781 32.1834 91.1758 32.599C91.1758 33.0146 91.1349 33.4256 91.0509 33.8343C90.9692 34.2408 90.8488 34.6359 90.6876 35.0197C90.5286 35.4035 90.3311 35.7668 90.0994 36.112C89.8678 36.4571 89.6044 36.7751 89.3092 37.068L68.0247 58.3503H84.8447C85.258 58.3503 85.6691 58.3911 86.0755 58.4729C86.482 58.5524 86.8771 58.6727 87.2586 58.8317C87.6424 58.9906 88.0057 59.1836 88.3509 59.4153C88.6961 59.6446 89.014 59.9058 89.3069 60.201C89.5999 60.4939 89.8633 60.8118 90.0926 61.157C90.322 61.5022 90.5173 61.8655 90.6762 62.247C90.8352 62.6308 90.9533 63.0259 91.035 63.4324C91.1168 63.8389 91.1577 64.2499 91.1577 64.6632C91.1577 65.0787 91.1168 65.4875 91.035 65.894C90.9533 66.3004 90.8352 66.6956 90.6762 67.0793C90.5173 67.4631 90.322 67.8264 90.0926 68.1693C89.8633 68.5145 89.5999 68.8347 89.3069 69.1276C89.014 69.4206 88.6961 69.6817 88.3509 69.9111C88.0057 70.1427 87.6424 70.3357 87.2586 70.4947C86.8771 70.6536 86.482 70.774 86.0755 70.8557C85.6691 70.9352 85.258 70.9761 84.8447 70.9761L52.8737 70.9693Z" fill="white"/>
</g>
<mask id="mask1_418_7753" style="mask-type:luminance" maskUnits="userSpaceOnUse" x="104" y="33" width="132" height="32">
<path d="M236 33H104V65H236V33Z" fill="white"/>
</mask>
<g mask="url(#mask1_418_7753)">
<path d="M117.929 57.5117H105.319V54.8086L112.335 44.8555H105.491V41.3242H117.757V44.0117L110.741 53.9805H117.929V57.5117Z" fill="white"/>
<path d="M132.643 57.5117L131.846 54.4805H126.596L125.768 57.5117H120.971L126.252 41.2617H132.08L137.439 57.5117H132.643ZM130.939 50.8867L130.252 48.2305C130.178 47.9492 130.068 47.543 129.924 47.0117C129.787 46.4727 129.646 45.9141 129.502 45.3398C129.365 44.7695 129.26 44.3008 129.189 43.9336C129.127 44.3008 129.033 44.7539 128.908 45.293C128.791 45.8359 128.666 46.3711 128.533 46.9023C128.408 47.4336 128.299 47.8789 128.205 48.2305L127.502 50.8867H130.939Z" fill="white"/>
<path d="M141.656 57.5117V41.3242H146.031V53.9805H152.265V57.5117H141.656Z" fill="white"/>
<path d="M172.466 49.4014C172.466 50.6436 172.314 51.7764 172.013 52.8076C171.72 53.8311 171.255 54.71 170.623 55.4482C169.986 56.1787 169.169 56.7412 168.169 57.1357C167.177 57.5303 165.986 57.7295 164.591 57.7295C163.236 57.7295 162.06 57.5303 161.06 57.1357C160.068 56.7412 159.251 56.1787 158.607 55.4482C157.97 54.71 157.498 53.8311 157.185 52.8076C156.88 51.7764 156.732 50.6318 156.732 49.3701C156.732 47.6943 157.005 46.2373 157.56 44.9951C158.123 43.7451 158.986 42.7842 160.154 42.1045C161.318 41.417 162.81 41.0732 164.623 41.0732C166.466 41.0732 167.966 41.417 169.123 42.1045C170.279 42.792 171.123 43.7607 171.654 45.0107C172.193 46.2529 172.466 47.7139 172.466 49.4014ZM161.326 49.4014C161.326 50.3701 161.435 51.21 161.654 51.917C161.88 52.6162 162.236 53.1514 162.716 53.5264C163.193 53.9014 163.818 54.0889 164.591 54.0889C165.404 54.0889 166.044 53.9014 166.513 53.5264C166.99 53.1514 167.333 52.6162 167.544 51.917C167.751 51.21 167.857 50.3701 167.857 49.4014C167.857 47.9326 167.611 46.7764 167.123 45.9326C166.642 45.0811 165.81 44.6514 164.623 44.6514C163.83 44.6514 163.189 44.8467 162.701 45.2295C162.22 45.6162 161.873 46.1631 161.654 46.8701C161.435 47.5811 161.326 48.4248 161.326 49.4014Z" fill="white"/>
<path d="M199.335 41.3242L195.351 57.5117H190.179L188.632 50.4648C188.601 50.332 188.554 50.1055 188.491 49.793C188.429 49.4727 188.354 49.1055 188.272 48.6992C188.198 48.293 188.132 47.8945 188.069 47.4961C188.007 47.1016 187.96 46.7695 187.929 46.4961C187.897 46.7695 187.843 47.1016 187.772 47.4961C187.71 47.8945 187.64 48.293 187.569 48.6992C187.495 49.1055 187.421 49.4727 187.351 49.793C187.276 50.1055 187.226 50.332 187.194 50.4648L185.632 57.5117H180.46L176.46 41.3242H180.679L182.444 49.4492C182.483 49.6484 182.542 49.9297 182.616 50.293C182.698 50.6602 182.78 51.0586 182.866 51.4961C182.948 51.9258 183.026 52.3359 183.101 52.7305C183.171 53.1289 183.226 53.4609 183.257 53.7305C183.319 53.2734 183.397 52.7539 183.491 52.168C183.593 51.5859 183.702 50.9922 183.819 50.3867C183.944 49.7852 184.058 49.2266 184.163 48.7148C184.276 48.1953 184.374 47.7734 184.46 47.4492L185.897 41.3242H189.944L191.319 47.4492C191.401 47.7617 191.499 48.1797 191.616 48.6992C191.729 49.2227 191.843 49.7891 191.96 50.4023C192.085 51.0078 192.198 51.6016 192.304 52.1836C192.405 52.7695 192.483 53.2852 192.538 53.7305C192.577 53.3555 192.651 52.8867 192.757 52.3242C192.858 51.7617 192.964 51.2148 193.069 50.6836C193.171 50.1445 193.257 49.7383 193.319 49.4648L195.116 41.3242H199.335Z" fill="white"/>
<path d="M213.508 57.5117H203.899V41.3242H213.508V44.8398H208.274V47.3867H213.118V50.8867H208.274V53.9492H213.508V57.5117Z" fill="white"/>
<path d="M218.815 41.3242H224.456C226.8 41.3242 228.464 41.6758 229.456 42.3711C230.456 43.0586 230.956 44.0547 230.956 45.3555C230.956 46.0664 230.823 46.668 230.565 47.168C230.315 47.6602 229.995 48.0508 229.612 48.3398C229.226 48.6211 228.831 48.8164 228.425 48.918V49.0273C228.862 49.1445 229.3 49.332 229.737 49.5898C230.183 49.8398 230.554 50.2227 230.847 50.7305C231.136 51.2305 231.284 51.9141 231.284 52.7773C231.284 53.7578 231.034 54.6016 230.534 55.3086C230.034 56.0195 229.319 56.5664 228.394 56.9492C227.476 57.3242 226.382 57.5117 225.112 57.5117H218.815V41.3242ZM223.19 47.543H224.503C225.229 47.543 225.741 47.3945 226.034 47.0898C226.323 46.7891 226.472 46.4258 226.472 45.9961C226.472 45.5586 226.304 45.2266 225.972 44.9961C225.636 44.7578 225.116 44.6367 224.409 44.6367H223.19V47.543ZM223.19 50.7305V54.1367H224.722C225.479 54.1367 226.011 53.9766 226.315 53.6523C226.616 53.3203 226.769 52.9023 226.769 52.4023C226.769 52.1211 226.706 51.8555 226.581 51.6055C226.456 51.3477 226.237 51.1367 225.925 50.9805C225.612 50.8164 225.183 50.7305 224.644 50.7305H223.19Z" fill="white"/>
</g>
</svg>
