<svg width="250" height="100" viewBox="0 0 250 100" fill="none" xmlns="http://www.w3.org/2000/svg">
<path d="M41.2251 27.4579C41.6271 27.551 42.0177 27.685 42.3969 27.8553C42.7738 28.0279 43.1304 28.2345 43.4664 28.4753C43.8048 28.7182 44.1136 28.9907 44.3975 29.2928C44.6813 29.5948 44.9311 29.9218 45.1491 30.2738C45.3694 30.628 45.5511 30.9982 45.6964 31.3842C45.8417 31.7725 45.9485 32.1722 46.0166 32.5809C46.0824 32.9897 46.1097 33.4007 46.0961 33.8163C46.0824 34.2295 46.0279 34.6383 45.9326 35.0425C45.8395 35.4467 45.7055 35.8373 45.5352 36.2143C45.3626 36.5912 45.1559 36.9477 44.9152 37.2861C44.6745 37.6222 44.402 37.931 44.0977 38.2149C43.7957 38.4987 43.4687 38.7485 43.1167 38.9688C42.7648 39.1868 42.3946 39.3684 42.0063 39.5138C41.618 39.6591 41.2183 39.7658 40.8096 39.834C40.4008 39.8998 39.9898 39.9271 39.5765 39.9134C39.1609 39.8998 38.7522 39.8453 38.348 39.7522C37.946 39.6568 37.5555 39.5251 37.1762 39.3525C36.7993 39.1822 36.4428 38.9756 36.1067 38.7326C35.7683 38.4919 35.4595 38.2194 35.1756 37.9174C34.8918 37.6131 34.642 37.2861 34.424 36.9341C34.2037 36.5821 34.022 36.212 33.8767 35.8237C33.7314 35.4354 33.6247 35.038 33.5565 34.6292C33.4907 34.2205 33.4634 33.8072 33.477 33.3939C33.4907 32.9783 33.5452 32.5696 33.6405 32.1676C33.7337 31.7634 33.8676 31.3728 34.0379 30.9959C34.2105 30.6167 34.4172 30.2601 34.6579 29.924C34.8986 29.588 35.1711 29.2769 35.4754 28.993C35.7774 28.7114 36.1044 28.4594 36.4564 28.2414C36.8084 28.0234 37.1785 27.8394 37.5668 27.6941C37.9551 27.5488 38.3525 27.442 38.7635 27.3762C39.1723 27.308 39.5833 27.2808 39.9966 27.2944C40.4122 27.308 40.8209 27.3625 41.2251 27.4579Z" fill="#9B30F4"/>
<mask id="mask0_7_58" style="mask-type:luminance" maskUnits="userSpaceOnUse" x="33" y="27" width="46" height="46">
<path d="M33 27H78.344V72.1964H33V27Z" fill="white"/>
</mask>
<g mask="url(#mask0_7_58)">
<path fill-rule="evenodd" clip-rule="evenodd" d="M39.8737 71.9693C39.2469 71.9784 38.6315 71.8966 38.0275 71.7218C37.4234 71.5469 36.8603 71.288 36.3334 70.9451C35.8066 70.6022 35.3434 70.1912 34.9392 69.7098C34.5372 69.2284 34.2125 68.697 33.9695 68.1179C33.7243 67.5411 33.5698 66.9394 33.504 66.3149C33.4404 65.6904 33.4677 65.0682 33.588 64.4528C33.7084 63.8374 33.9173 63.2515 34.2125 62.6975C34.5077 62.1434 34.8778 61.6438 35.3229 61.201L67.3803 29.1414C67.6732 28.8461 67.9911 28.5827 68.3363 28.3511C68.6815 28.1172 69.0448 27.9219 69.4286 27.7607C69.8123 27.6017 70.2075 27.4791 70.6139 27.3974C71.0227 27.3156 71.4337 27.2747 71.8493 27.2725C72.2648 27.2725 72.6781 27.3111 73.0846 27.3928C73.4934 27.4723 73.8885 27.5926 74.2723 27.7516C74.656 27.9106 75.0216 28.1036 75.3668 28.3352C75.7142 28.5668 76.0322 28.828 76.3274 29.1209C76.6203 29.4161 76.8837 29.7363 77.1131 30.0815C77.3447 30.4266 77.54 30.7923 77.6989 31.176C77.8579 31.5598 77.976 31.9572 78.0577 32.3637C78.1372 32.7724 78.1781 33.1834 78.1758 33.599C78.1758 34.0146 78.1349 34.4256 78.0509 34.8343C77.9692 35.2408 77.8488 35.6359 77.6876 36.0197C77.5286 36.4035 77.3311 36.7668 77.0994 37.112C76.8678 37.4571 76.6044 37.7751 76.3092 38.068L55.0247 59.3503H71.8447C72.258 59.3503 72.6691 59.3911 73.0755 59.4729C73.482 59.5524 73.8771 59.6727 74.2586 59.8317C74.6424 59.9906 75.0057 60.1836 75.3509 60.4153C75.6961 60.6446 76.014 60.9058 76.3069 61.201C76.5999 61.4939 76.8633 61.8118 77.0926 62.157C77.322 62.5022 77.5173 62.8655 77.6762 63.247C77.8352 63.6308 77.9533 64.0259 78.035 64.4324C78.1168 64.8389 78.1577 65.2499 78.1577 65.6632C78.1577 66.0787 78.1168 66.4875 78.035 66.894C77.9533 67.3004 77.8352 67.6956 77.6762 68.0793C77.5173 68.4631 77.322 68.8264 77.0926 69.1693C76.8633 69.5145 76.5999 69.8347 76.3069 70.1276C76.014 70.4206 75.6961 70.6817 75.3509 70.9111C75.0057 71.1427 74.6424 71.3357 74.2586 71.4947C73.8771 71.6536 73.482 71.774 73.0755 71.8557C72.6691 71.9352 72.258 71.9761 71.8447 71.9761L39.8737 71.9693Z" fill="#6449F4"/>
</g>
<mask id="mask1_7_58" style="mask-type:luminance" maskUnits="userSpaceOnUse" x="89" y="34" width="132" height="32">
<path d="M221 34H89V66H221V34Z" fill="white"/>
</mask>
<g mask="url(#mask1_7_58)">
<path d="M102.929 58.5117H90.3193V55.8086L97.335 45.8555H90.4912V42.3242H102.757V45.0117L95.7412 54.9805H102.929V58.5117Z" fill="#6449F4"/>
<path d="M117.643 58.5117L116.846 55.4805H111.596L110.768 58.5117H105.971L111.252 42.2617H117.08L122.439 58.5117H117.643ZM115.939 51.8867L115.252 49.2305C115.178 48.9492 115.068 48.543 114.924 48.0117C114.787 47.4727 114.646 46.9141 114.502 46.3398C114.365 45.7695 114.26 45.3008 114.189 44.9336C114.127 45.3008 114.033 45.7539 113.908 46.293C113.791 46.8359 113.666 47.3711 113.533 47.9023C113.408 48.4336 113.299 48.8789 113.205 49.2305L112.502 51.8867H115.939Z" fill="#6449F4"/>
<path d="M126.656 58.5117V42.3242H131.031V54.9805H137.265V58.5117H126.656Z" fill="#6449F4"/>
<path d="M157.466 50.4014C157.466 51.6436 157.314 52.7764 157.013 53.8076C156.72 54.8311 156.255 55.71 155.623 56.4482C154.986 57.1787 154.169 57.7412 153.169 58.1357C152.177 58.5303 150.986 58.7295 149.591 58.7295C148.236 58.7295 147.06 58.5303 146.06 58.1357C145.068 57.7412 144.251 57.1787 143.607 56.4482C142.97 55.71 142.498 54.8311 142.185 53.8076C141.88 52.7764 141.732 51.6318 141.732 50.3701C141.732 48.6943 142.005 47.2373 142.56 45.9951C143.123 44.7451 143.986 43.7842 145.154 43.1045C146.318 42.417 147.81 42.0732 149.623 42.0732C151.466 42.0732 152.966 42.417 154.123 43.1045C155.279 43.792 156.123 44.7607 156.654 46.0107C157.193 47.2529 157.466 48.7139 157.466 50.4014ZM146.326 50.4014C146.326 51.3701 146.435 52.21 146.654 52.917C146.88 53.6162 147.236 54.1514 147.716 54.5264C148.193 54.9014 148.818 55.0889 149.591 55.0889C150.404 55.0889 151.044 54.9014 151.513 54.5264C151.99 54.1514 152.333 53.6162 152.544 52.917C152.751 52.21 152.857 51.3701 152.857 50.4014C152.857 48.9326 152.611 47.7764 152.123 46.9326C151.642 46.0811 150.81 45.6514 149.623 45.6514C148.83 45.6514 148.189 45.8467 147.701 46.2295C147.22 46.6162 146.873 47.1631 146.654 47.8701C146.435 48.5811 146.326 49.4248 146.326 50.4014Z" fill="#6449F4"/>
<path d="M184.335 42.3242L180.351 58.5117H175.179L173.632 51.4648C173.601 51.332 173.554 51.1055 173.491 50.793C173.429 50.4727 173.354 50.1055 173.272 49.6992C173.198 49.293 173.132 48.8945 173.069 48.4961C173.007 48.1016 172.96 47.7695 172.929 47.4961C172.897 47.7695 172.843 48.1016 172.772 48.4961C172.71 48.8945 172.64 49.293 172.569 49.6992C172.495 50.1055 172.421 50.4727 172.351 50.793C172.276 51.1055 172.226 51.332 172.194 51.4648L170.632 58.5117H165.46L161.46 42.3242H165.679L167.444 50.4492C167.483 50.6484 167.542 50.9297 167.616 51.293C167.698 51.6602 167.78 52.0586 167.866 52.4961C167.948 52.9258 168.026 53.3359 168.101 53.7305C168.171 54.1289 168.226 54.4609 168.257 54.7305C168.319 54.2734 168.397 53.7539 168.491 53.168C168.593 52.5859 168.702 51.9922 168.819 51.3867C168.944 50.7852 169.058 50.2266 169.163 49.7148C169.276 49.1953 169.374 48.7734 169.46 48.4492L170.897 42.3242H174.944L176.319 48.4492C176.401 48.7617 176.499 49.1797 176.616 49.6992C176.729 50.2227 176.843 50.7891 176.96 51.4023C177.085 52.0078 177.198 52.6016 177.304 53.1836C177.405 53.7695 177.483 54.2852 177.538 54.7305C177.577 54.3555 177.651 53.8867 177.757 53.3242C177.858 52.7617 177.964 52.2148 178.069 51.6836C178.171 51.1445 178.257 50.7383 178.319 50.4648L180.116 42.3242H184.335Z" fill="#6449F4"/>
<path d="M198.508 58.5117H188.899V42.3242H198.508V45.8398H193.274V48.3867H198.118V51.8867H193.274V54.9492H198.508V58.5117Z" fill="#6449F4"/>
<path d="M203.815 42.3242H209.456C211.8 42.3242 213.464 42.6758 214.456 43.3711C215.456 44.0586 215.956 45.0547 215.956 46.3555C215.956 47.0664 215.823 47.668 215.565 48.168C215.315 48.6602 214.995 49.0508 214.612 49.3398C214.226 49.6211 213.831 49.8164 213.425 49.918V50.0273C213.862 50.1445 214.3 50.332 214.737 50.5898C215.183 50.8398 215.554 51.2227 215.847 51.7305C216.136 52.2305 216.284 52.9141 216.284 53.7773C216.284 54.7578 216.034 55.6016 215.534 56.3086C215.034 57.0195 214.319 57.5664 213.394 57.9492C212.476 58.3242 211.382 58.5117 210.112 58.5117H203.815V42.3242ZM208.19 48.543H209.503C210.229 48.543 210.741 48.3945 211.034 48.0898C211.323 47.7891 211.472 47.4258 211.472 46.9961C211.472 46.5586 211.304 46.2266 210.972 45.9961C210.636 45.7578 210.116 45.6367 209.409 45.6367H208.19V48.543ZM208.19 51.7305V55.1367H209.722C210.479 55.1367 211.011 54.9766 211.315 54.6523C211.616 54.3203 211.769 53.9023 211.769 53.4023C211.769 53.1211 211.706 52.8555 211.581 52.6055C211.456 52.3477 211.237 52.1367 210.925 51.9805C210.612 51.8164 210.183 51.7305 209.644 51.7305H208.19Z" fill="#6449F4"/>
</g>
</svg>
