<svg width="125" height="100" viewBox="0 0 125 100" fill="none" xmlns="http://www.w3.org/2000/svg">
<path d="M47.2251 27.4579C47.6271 27.551 48.0177 27.685 48.3969 27.8553C48.7738 28.0279 49.1304 28.2345 49.4664 28.4753C49.8048 28.7182 50.1136 28.9907 50.3975 29.2928C50.6813 29.5948 50.9311 29.9218 51.1491 30.2738C51.3694 30.628 51.5511 30.9982 51.6964 31.3842C51.8417 31.7725 51.9485 32.1722 52.0166 32.5809C52.0824 32.9897 52.1097 33.4007 52.0961 33.8163C52.0824 34.2295 52.0279 34.6383 51.9326 35.0425C51.8395 35.4467 51.7055 35.8373 51.5352 36.2143C51.3626 36.5912 51.1559 36.9477 50.9152 37.2861C50.6745 37.6222 50.402 37.931 50.0977 38.2149C49.7957 38.4987 49.4687 38.7485 49.1167 38.9688C48.7648 39.1868 48.3946 39.3684 48.0063 39.5138C47.618 39.6591 47.2183 39.7658 46.8096 39.834C46.4008 39.8998 45.9898 39.9271 45.5765 39.9134C45.1609 39.8998 44.7522 39.8453 44.348 39.7522C43.946 39.6568 43.5555 39.5251 43.1762 39.3525C42.7993 39.1822 42.4428 38.9756 42.1067 38.7326C41.7683 38.4919 41.4595 38.2194 41.1756 37.9174C40.8918 37.6131 40.642 37.2861 40.424 36.9341C40.2037 36.5821 40.022 36.212 39.8767 35.8237C39.7314 35.4354 39.6247 35.038 39.5565 34.6292C39.4907 34.2205 39.4634 33.8072 39.477 33.3939C39.4907 32.9783 39.5452 32.5696 39.6405 32.1676C39.7337 31.7634 39.8676 31.3728 40.0379 30.9959C40.2105 30.6167 40.4172 30.2601 40.6579 29.924C40.8986 29.588 41.1711 29.2769 41.4754 28.993C41.7774 28.7114 42.1044 28.4594 42.4564 28.2414C42.8084 28.0234 43.1785 27.8394 43.5668 27.6941C43.9551 27.5488 44.3525 27.442 44.7635 27.3762C45.1723 27.308 45.5833 27.2808 45.9966 27.2944C46.4122 27.308 46.8209 27.3625 47.2251 27.4579Z" fill="white"/>
<mask id="mask0_418_7754" style="mask-type:luminance" maskUnits="userSpaceOnUse" x="39" y="27" width="46" height="46">
<path d="M39 27H84.344V72.1964H39V27Z" fill="white"/>
</mask>
<g mask="url(#mask0_418_7754)">
<path fill-rule="evenodd" clip-rule="evenodd" d="M45.8737 71.9693C45.2469 71.9784 44.6315 71.8966 44.0275 71.7218C43.4234 71.5469 42.8603 71.288 42.3334 70.9451C41.8066 70.6022 41.3434 70.1912 40.9392 69.7098C40.5372 69.2284 40.2125 68.697 39.9695 68.1179C39.7243 67.5411 39.5698 66.9394 39.504 66.3149C39.4404 65.6904 39.4677 65.0682 39.588 64.4528C39.7084 63.8374 39.9173 63.2515 40.2125 62.6975C40.5077 62.1434 40.8778 61.6438 41.3229 61.201L73.3803 29.1414C73.6732 28.8461 73.9911 28.5827 74.3363 28.3511C74.6815 28.1172 75.0448 27.9219 75.4286 27.7607C75.8123 27.6017 76.2075 27.4791 76.6139 27.3974C77.0227 27.3156 77.4337 27.2747 77.8493 27.2725C78.2648 27.2725 78.6781 27.3111 79.0846 27.3928C79.4934 27.4723 79.8885 27.5926 80.2723 27.7516C80.656 27.9106 81.0216 28.1036 81.3668 28.3352C81.7142 28.5668 82.0322 28.828 82.3274 29.1209C82.6203 29.4161 82.8837 29.7363 83.1131 30.0815C83.3447 30.4266 83.54 30.7923 83.6989 31.176C83.8579 31.5598 83.976 31.9572 84.0577 32.3637C84.1372 32.7724 84.1781 33.1834 84.1758 33.599C84.1758 34.0146 84.1349 34.4256 84.0509 34.8343C83.9692 35.2408 83.8488 35.6359 83.6876 36.0197C83.5286 36.4035 83.3311 36.7668 83.0994 37.112C82.8678 37.4571 82.6044 37.7751 82.3092 38.068L61.0247 59.3503H77.8447C78.258 59.3503 78.6691 59.3911 79.0755 59.4729C79.482 59.5524 79.8771 59.6727 80.2586 59.8317C80.6424 59.9906 81.0057 60.1836 81.3509 60.4153C81.6961 60.6446 82.014 60.9058 82.3069 61.201C82.5999 61.4939 82.8633 61.8118 83.0926 62.157C83.322 62.5022 83.5173 62.8655 83.6762 63.247C83.8352 63.6308 83.9533 64.0259 84.035 64.4324C84.1168 64.8389 84.1577 65.2499 84.1577 65.6632C84.1577 66.0787 84.1168 66.4875 84.035 66.894C83.9533 67.3004 83.8352 67.6956 83.6762 68.0793C83.5173 68.4631 83.322 68.8264 83.0926 69.1693C82.8633 69.5145 82.5999 69.8347 82.3069 70.1276C82.014 70.4206 81.6961 70.6817 81.3509 70.9111C81.0057 71.1427 80.6424 71.3357 80.2586 71.4947C79.8771 71.6536 79.482 71.774 79.0755 71.8557C78.6691 71.9352 78.258 71.9761 77.8447 71.9761L45.8737 71.9693Z" fill="white"/>
</g>
</svg>
