<svg xmlns="http://www.w3.org/2000/svg" xmlns:xlink="http://www.w3.org/1999/xlink" width="500" zoomAndPan="magnify" viewBox="0 0 375 374.999991" height="500" preserveAspectRatio="xMidYMid meet" version="1.0"><defs><g/><clipPath id="fad4fcdad7"><path d="M 149 125 L 227 125 L 227 202.746094 L 149 202.746094 Z M 149 125 " clip-rule="nonzero"/></clipPath><clipPath id="180772f078"><rect x="0" width="132" y="0" height="32"/></clipPath></defs><rect x="-37.5" width="450" fill="#ffffff" y="-37.499999" height="449.999989" fill-opacity="1"/><rect x="-37.5" width="450" fill="#ffffff" y="-37.499999" height="449.999989" fill-opacity="1"/><path fill="#1e1e1e" d="M 163.148438 125.789062 C 163.839844 125.949219 164.511719 126.179688 165.164062 126.472656 C 165.8125 126.769531 166.425781 127.125 167.003906 127.539062 C 167.585938 127.957031 168.117188 128.425781 168.605469 128.945312 C 169.09375 129.464844 169.523438 130.027344 169.898438 130.632812 C 170.277344 131.242188 170.589844 131.875 170.839844 132.542969 C 171.089844 133.210938 171.273438 133.898438 171.390625 134.601562 C 171.503906 135.304688 171.550781 136.011719 171.527344 136.726562 C 171.503906 137.4375 171.410156 138.140625 171.246094 138.835938 C 171.085938 139.53125 170.855469 140.203125 170.5625 140.851562 C 170.265625 141.5 169.910156 142.113281 169.496094 142.695312 C 169.082031 143.273438 168.613281 143.804688 168.089844 144.292969 C 167.570312 144.78125 167.007812 145.210938 166.402344 145.589844 C 165.796875 145.964844 165.160156 146.277344 164.492188 146.527344 C 163.824219 146.777344 163.136719 146.960938 162.433594 147.078125 C 161.730469 147.191406 161.023438 147.238281 160.3125 147.214844 C 159.597656 147.191406 158.894531 147.097656 158.199219 146.9375 C 157.507812 146.773438 156.835938 146.546875 156.183594 146.25 C 155.535156 145.957031 154.921875 145.601562 154.34375 145.183594 C 153.761719 144.769531 153.230469 144.300781 152.742188 143.78125 C 152.253906 143.257812 151.824219 142.695312 151.449219 142.089844 C 151.070312 141.484375 150.757812 140.847656 150.507812 140.179688 C 150.257812 139.511719 150.074219 138.828125 149.957031 138.125 C 149.84375 137.421875 149.796875 136.710938 149.820312 136 C 149.84375 135.285156 149.9375 134.582031 150.101562 133.890625 C 150.261719 133.195312 150.492188 132.523438 150.785156 131.875 C 151.082031 131.222656 151.4375 130.609375 151.851562 130.03125 C 152.265625 129.453125 152.734375 128.917969 153.257812 128.429688 C 153.777344 127.945312 154.339844 127.511719 154.945312 127.136719 C 155.550781 126.761719 156.1875 126.445312 156.855469 126.195312 C 157.523438 125.945312 158.207031 125.761719 158.914062 125.648438 C 159.617188 125.53125 160.324219 125.484375 161.035156 125.507812 C 161.75 125.53125 162.453125 125.625 163.148438 125.789062 Z M 163.148438 125.789062 " fill-opacity="1" fill-rule="nonzero"/><g clip-path="url(#fad4fcdad7)"><path fill="#1e1e1e" d="M 160.824219 202.355469 C 159.746094 202.371094 158.6875 202.230469 157.648438 201.929688 C 156.609375 201.628906 155.640625 201.183594 154.734375 200.59375 C 153.828125 200.003906 153.03125 199.296875 152.335938 198.46875 C 151.644531 197.640625 151.085938 196.726562 150.667969 195.730469 C 150.246094 194.738281 149.980469 193.703125 149.867188 192.628906 C 149.757812 191.554688 149.804688 190.484375 150.011719 189.425781 C 150.21875 188.367188 150.578125 187.359375 151.085938 186.40625 C 151.59375 185.453125 152.230469 184.59375 152.996094 183.832031 L 208.140625 128.683594 C 208.644531 128.175781 209.191406 127.722656 209.785156 127.324219 C 210.378906 126.921875 211.003906 126.585938 211.664062 126.308594 C 212.324219 126.035156 213.003906 125.824219 213.703125 125.683594 C 214.40625 125.542969 215.113281 125.472656 215.828125 125.46875 C 216.542969 125.46875 217.253906 125.535156 217.953125 125.675781 C 218.65625 125.8125 219.335938 126.019531 219.996094 126.292969 C 220.65625 126.566406 221.285156 126.898438 221.878906 127.296875 C 222.476562 127.695312 223.023438 128.144531 223.53125 128.648438 C 224.035156 129.15625 224.488281 129.707031 224.882812 130.300781 C 225.28125 130.894531 225.617188 131.523438 225.890625 132.183594 C 226.164062 132.84375 226.367188 133.527344 226.507812 134.226562 C 226.644531 134.929688 226.714844 135.636719 226.710938 136.351562 C 226.710938 137.066406 226.640625 137.773438 226.496094 138.476562 C 226.355469 139.175781 226.148438 139.855469 225.871094 140.515625 C 225.597656 141.175781 225.257812 141.800781 224.859375 142.394531 C 224.460938 142.988281 224.007812 143.535156 223.5 144.039062 L 186.886719 180.648438 L 215.820312 180.648438 C 216.53125 180.648438 217.238281 180.71875 217.9375 180.859375 C 218.636719 180.996094 219.316406 181.203125 219.972656 181.476562 C 220.632812 181.75 221.257812 182.082031 221.851562 182.480469 C 222.445312 182.875 222.992188 183.324219 223.496094 183.832031 C 224 184.335938 224.453125 184.882812 224.847656 185.476562 C 225.242188 186.070312 225.578125 186.695312 225.851562 187.351562 C 226.125 188.011719 226.328125 188.691406 226.46875 189.390625 C 226.609375 190.089844 226.679688 190.796875 226.679688 191.507812 C 226.679688 192.222656 226.609375 192.925781 226.46875 193.625 C 226.328125 194.324219 226.125 195.003906 225.851562 195.664062 C 225.578125 196.324219 225.242188 196.949219 224.847656 197.539062 C 224.453125 198.132812 224 198.683594 223.496094 199.1875 C 222.992188 199.691406 222.445312 200.140625 221.851562 200.535156 C 221.257812 200.933594 220.632812 201.265625 219.972656 201.539062 C 219.316406 201.8125 218.636719 202.019531 217.9375 202.160156 C 217.238281 202.296875 216.53125 202.367188 215.820312 202.367188 Z M 160.824219 202.355469 " fill-opacity="1" fill-rule="evenodd"/></g><g transform="matrix(1, 0, 0, 1, 123, 208)"><g clip-path="url(#180772f078)"><g fill="#1e1e1e" fill-opacity="1"><g transform="translate(0.647662, 24.511156)"><g><path d="M 13.28125 0 L 0.671875 0 L 0.671875 -2.703125 L 7.6875 -12.65625 L 0.84375 -12.65625 L 0.84375 -16.1875 L 13.109375 -16.1875 L 13.109375 -13.5 L 6.09375 -3.53125 L 13.28125 -3.53125 Z M 13.28125 0 "/></g></g></g><g fill="#1e1e1e" fill-opacity="1"><g transform="translate(16.970467, 24.511156)"><g><path d="M 11.671875 0 L 10.875 -3.03125 L 5.625 -3.03125 L 4.796875 0 L 0 0 L 5.28125 -16.25 L 11.109375 -16.25 L 16.46875 0 Z M 9.96875 -6.625 L 9.28125 -9.28125 C 9.207031 -9.5625 9.097656 -9.96875 8.953125 -10.5 C 8.816406 -11.039062 8.675781 -11.597656 8.53125 -12.171875 C 8.394531 -12.742188 8.289062 -13.210938 8.21875 -13.578125 C 8.15625 -13.210938 8.0625 -12.757812 7.9375 -12.21875 C 7.820312 -11.675781 7.695312 -11.140625 7.5625 -10.609375 C 7.4375 -10.078125 7.328125 -9.632812 7.234375 -9.28125 L 6.53125 -6.625 Z M 9.96875 -6.625 "/></g></g></g><g fill="#1e1e1e" fill-opacity="1"><g transform="translate(35.906121, 24.511156)"><g><path d="M 1.75 0 L 1.75 -16.1875 L 6.125 -16.1875 L 6.125 -3.53125 L 12.359375 -3.53125 L 12.359375 0 Z M 1.75 0 "/></g></g></g><g fill="#1e1e1e" fill-opacity="1"><g transform="translate(51.575708, 24.511156)"><g><path d="M 16.890625 -8.109375 C 16.890625 -6.867188 16.738281 -5.734375 16.4375 -4.703125 C 16.144531 -3.679688 15.679688 -2.800781 15.046875 -2.0625 C 14.410156 -1.332031 13.59375 -0.769531 12.59375 -0.375 C 11.601562 0.0195312 10.410156 0.21875 9.015625 0.21875 C 7.660156 0.21875 6.484375 0.0195312 5.484375 -0.375 C 4.492188 -0.769531 3.675781 -1.332031 3.03125 -2.0625 C 2.394531 -2.800781 1.921875 -3.679688 1.609375 -4.703125 C 1.304688 -5.734375 1.15625 -6.878906 1.15625 -8.140625 C 1.15625 -9.816406 1.429688 -11.273438 1.984375 -12.515625 C 2.546875 -13.765625 3.410156 -14.726562 4.578125 -15.40625 C 5.742188 -16.09375 7.234375 -16.4375 9.046875 -16.4375 C 10.890625 -16.4375 12.390625 -16.09375 13.546875 -15.40625 C 14.703125 -14.71875 15.546875 -13.75 16.078125 -12.5 C 16.617188 -11.257812 16.890625 -9.796875 16.890625 -8.109375 Z M 5.75 -8.109375 C 5.75 -7.140625 5.859375 -6.300781 6.078125 -5.59375 C 6.304688 -4.894531 6.660156 -4.359375 7.140625 -3.984375 C 7.617188 -3.609375 8.242188 -3.421875 9.015625 -3.421875 C 9.828125 -3.421875 10.46875 -3.609375 10.9375 -3.984375 C 11.414062 -4.359375 11.757812 -4.894531 11.96875 -5.59375 C 12.175781 -6.300781 12.28125 -7.140625 12.28125 -8.109375 C 12.28125 -9.578125 12.035156 -10.734375 11.546875 -11.578125 C 11.066406 -12.429688 10.234375 -12.859375 9.046875 -12.859375 C 8.253906 -12.859375 7.613281 -12.664062 7.125 -12.28125 C 6.644531 -11.894531 6.296875 -11.347656 6.078125 -10.640625 C 5.859375 -9.929688 5.75 -9.085938 5.75 -8.109375 Z M 5.75 -8.109375 "/></g></g></g><g fill="#1e1e1e" fill-opacity="1"><g transform="translate(72.116706, 24.511156)"><g><path d="M 23.21875 -16.1875 L 19.234375 0 L 14.0625 0 L 12.515625 -7.046875 C 12.484375 -7.179688 12.4375 -7.40625 12.375 -7.71875 C 12.3125 -8.039062 12.238281 -8.40625 12.15625 -8.8125 C 12.082031 -9.21875 12.015625 -9.617188 11.953125 -10.015625 C 11.890625 -10.410156 11.84375 -10.742188 11.8125 -11.015625 C 11.78125 -10.742188 11.726562 -10.410156 11.65625 -10.015625 C 11.59375 -9.617188 11.523438 -9.21875 11.453125 -8.8125 C 11.378906 -8.40625 11.304688 -8.039062 11.234375 -7.71875 C 11.160156 -7.40625 11.109375 -7.179688 11.078125 -7.046875 L 9.515625 0 L 4.34375 0 L 0.34375 -16.1875 L 4.5625 -16.1875 L 6.328125 -8.0625 C 6.367188 -7.863281 6.425781 -7.582031 6.5 -7.21875 C 6.582031 -6.851562 6.664062 -6.453125 6.75 -6.015625 C 6.832031 -5.585938 6.910156 -5.175781 6.984375 -4.78125 C 7.054688 -4.382812 7.109375 -4.050781 7.140625 -3.78125 C 7.203125 -4.238281 7.28125 -4.757812 7.375 -5.34375 C 7.476562 -5.925781 7.585938 -6.519531 7.703125 -7.125 C 7.828125 -7.726562 7.941406 -8.285156 8.046875 -8.796875 C 8.160156 -9.316406 8.257812 -9.738281 8.34375 -10.0625 L 9.78125 -16.1875 L 13.828125 -16.1875 L 15.203125 -10.0625 C 15.285156 -9.75 15.382812 -9.332031 15.5 -8.8125 C 15.613281 -8.289062 15.726562 -7.722656 15.84375 -7.109375 C 15.96875 -6.503906 16.082031 -5.910156 16.1875 -5.328125 C 16.289062 -4.742188 16.367188 -4.226562 16.421875 -3.78125 C 16.460938 -4.15625 16.535156 -4.625 16.640625 -5.1875 C 16.742188 -5.75 16.847656 -6.296875 16.953125 -6.828125 C 17.054688 -7.367188 17.140625 -7.773438 17.203125 -8.046875 L 19 -16.1875 Z M 23.21875 -16.1875 "/></g></g></g><g fill="#1e1e1e" fill-opacity="1"><g transform="translate(98.149114, 24.511156)"><g><path d="M 11.359375 0 L 1.75 0 L 1.75 -16.1875 L 11.359375 -16.1875 L 11.359375 -12.671875 L 6.125 -12.671875 L 6.125 -10.125 L 10.96875 -10.125 L 10.96875 -6.625 L 6.125 -6.625 L 6.125 -3.5625 L 11.359375 -3.5625 Z M 11.359375 0 "/></g></g></g><g fill="#1e1e1e" fill-opacity="1"><g transform="translate(113.065847, 24.511156)"><g><path d="M 1.75 -16.1875 L 7.390625 -16.1875 C 9.734375 -16.1875 11.398438 -15.835938 12.390625 -15.140625 C 13.390625 -14.453125 13.890625 -13.457031 13.890625 -12.15625 C 13.890625 -11.445312 13.757812 -10.84375 13.5 -10.34375 C 13.25 -9.851562 12.929688 -9.460938 12.546875 -9.171875 C 12.160156 -8.890625 11.765625 -8.695312 11.359375 -8.59375 L 11.359375 -8.484375 C 11.796875 -8.367188 12.234375 -8.179688 12.671875 -7.921875 C 13.117188 -7.671875 13.488281 -7.289062 13.78125 -6.78125 C 14.070312 -6.28125 14.21875 -5.597656 14.21875 -4.734375 C 14.21875 -3.753906 13.96875 -2.910156 13.46875 -2.203125 C 12.96875 -1.492188 12.253906 -0.945312 11.328125 -0.5625 C 10.410156 -0.1875 9.316406 0 8.046875 0 L 1.75 0 Z M 6.125 -9.96875 L 7.4375 -9.96875 C 8.164062 -9.96875 8.675781 -10.117188 8.96875 -10.421875 C 9.257812 -10.722656 9.40625 -11.085938 9.40625 -11.515625 C 9.40625 -11.953125 9.238281 -12.285156 8.90625 -12.515625 C 8.570312 -12.753906 8.050781 -12.875 7.34375 -12.875 L 6.125 -12.875 Z M 6.125 -6.78125 L 6.125 -3.375 L 7.65625 -3.375 C 8.414062 -3.375 8.945312 -3.535156 9.25 -3.859375 C 9.550781 -4.191406 9.703125 -4.609375 9.703125 -5.109375 C 9.703125 -5.390625 9.640625 -5.65625 9.515625 -5.90625 C 9.390625 -6.164062 9.171875 -6.375 8.859375 -6.53125 C 8.546875 -6.695312 8.117188 -6.78125 7.578125 -6.78125 Z M 6.125 -6.78125 "/></g></g></g></g></g></svg>
